<svg xmlns="http://www.w3.org/2000/svg" viewBox="0 0 224.12 224.11"><defs><style>.cls-1{fill:#32ba46;}.cls-2{fill:none;}.cls-3{fill:#fff;}</style></defs><title>icon-whatsapp</title><g id="Capa_2" data-name="Capa 2"><g id="Capa_1-2" data-name="Capa 1"><path class="cls-1" d="M112.06,224.11a111.58,111.58,0,0,1-55.89-15l-43.66,15,9-46.23A110.74,110.74,0,0,1,0,112.06,112.06,112.06,0,1,1,112.06,224.11Z"/><path class="cls-2" d="M112.06,44.29A67.69,67.69,0,0,0,58.69,153.71L54.17,177l22-7.58A67.74,67.74,0,1,0,112.06,44.29Z"/><path class="cls-3" d="M112.06,185.26a72.85,72.85,0,0,1-36.51-9.83L47,185.26l5.86-30.2a72.45,72.45,0,0,1-14-43,73.21,73.21,0,1,1,73.21,73.21Zm-35.2-21.8,2.21,1.38A62.38,62.38,0,1,0,63,150.36l1.53,2-3.2,16.5Z"/><path class="cls-3" d="M75.1,83.93s4.3-7.51,7.8-7.94,8-.43,9.22,1.86,6.65,15.59,6.65,15.59a5.24,5.24,0,0,1-.5,4.51,44.26,44.26,0,0,1-4.64,5.43,4,4,0,0,0,0,4.72,85.36,85.36,0,0,0,10.3,12.63c5.72,5.74,16.73,9.83,16.73,9.83a3.35,3.35,0,0,0,2.57-.79c1-1,6.44-7.8,6.44-7.8a3.81,3.81,0,0,1,4.65-.92c2.89,1.32,15.44,7.58,15.44,7.58a2.71,2.71,0,0,1,1.47,2.75c0,2.21-.9,7.64-2.73,9.47s-7.2,7.49-15.26,7.49S106,141.78,95.77,131.56s-19.31-20.6-21.45-30S72.46,87.82,75.1,83.93Z"/></g></g></svg>