<svg xmlns="http://www.w3.org/2000/svg" viewBox="0 0 35.38 35.38"><defs><style>.cls-1{fill:#a436d2;}.cls-2{fill:#fff;}</style></defs><title>icon-email</title><g id="Capa_2" data-name="Capa 2"><g id="Capa_1-2" data-name="Capa 1"><circle class="cls-1" cx="17.69" cy="17.69" r="17.69"/><path class="cls-2" d="M7.65,8.86l8.2,9.31a2.45,2.45,0,0,0,3.68,0L27.59,9a1.3,1.3,0,0,1,.23-.18,2.76,2.76,0,0,0-1.11-.23h-18a2.72,2.72,0,0,0-1.07.21Z"/><path class="cls-2" d="M29.06,9.91a.72.72,0,0,1-.15.27l-8.06,9.14a4.2,4.2,0,0,1-6.31,0L6.33,10l0-.06a2.8,2.8,0,0,0-.4,1.43V24a2.78,2.78,0,0,0,2.78,2.78h18A2.77,2.77,0,0,0,29.49,24V11.39A2.78,2.78,0,0,0,29.06,9.91Z"/></g></g></svg>